<svg width="28" height="25" viewBox="0 0 28 25" fill="none" xmlns="http://www.w3.org/2000/svg">
<path d="M0 1.625C0 1.00156 0.520139 0.5 1.16667 0.5H3.37847C4.44792 0.5 5.39583 1.1 5.83819 2H25.8174C27.0958 2 28.0292 3.17188 27.6938 4.3625L25.7007 11.5016C25.2875 12.9734 23.9021 14 22.3222 14H8.29792L8.56042 15.3359C8.66736 15.8656 9.14861 16.25 9.70764 16.25H23.7222C24.3687 16.25 24.8889 16.7516 24.8889 17.375C24.8889 17.9984 24.3687 18.5 23.7222 18.5H9.70764C8.02569 18.5 6.58194 17.3469 6.27083 15.7578L3.7625 3.05469C3.72847 2.87656 3.56806 2.75 3.37847 2.75H1.16667C0.520139 2.75 0 2.24844 0 1.625ZM6.22222 22.25C6.22222 21.9545 6.28258 21.6619 6.39984 21.389C6.5171 21.116 6.68897 20.8679 6.90564 20.659C7.12231 20.4501 7.37953 20.2843 7.66263 20.1713C7.94572 20.0582 8.24914 20 8.55556 20C8.86197 20 9.16539 20.0582 9.44848 20.1713C9.73158 20.2843 9.9888 20.4501 10.2055 20.659C10.4221 20.8679 10.594 21.116 10.7113 21.389C10.8285 21.6619 10.8889 21.9545 10.8889 22.25C10.8889 22.5455 10.8285 22.8381 10.7113 23.111C10.594 23.384 10.4221 23.6321 10.2055 23.841C9.9888 24.0499 9.73158 24.2157 9.44848 24.3287C9.16539 24.4418 8.86197 24.5 8.55556 24.5C8.24914 24.5 7.94572 24.4418 7.66263 24.3287C7.37953 24.2157 7.12231 24.0499 6.90564 23.841C6.68897 23.6321 6.5171 23.384 6.39984 23.111C6.28258 22.8381 6.22222 22.5455 6.22222 22.25ZM22.5556 20C23.1744 20 23.7679 20.2371 24.2055 20.659C24.6431 21.081 24.8889 21.6533 24.8889 22.25C24.8889 22.8467 24.6431 23.419 24.2055 23.841C23.7679 24.2629 23.1744 24.5 22.5556 24.5C21.9367 24.5 21.3432 24.2629 20.9056 23.841C20.4681 23.419 20.2222 22.8467 20.2222 22.25C20.2222 21.6533 20.4681 21.081 20.9056 20.659C21.3432 20.2371 21.9367 20 22.5556 20ZM12.25 8C12.25 8.51562 12.6875 8.9375 13.2222 8.9375H15.3611V11C15.3611 11.5156 15.7986 11.9375 16.3333 11.9375C16.8681 11.9375 17.3056 11.5156 17.3056 11V8.9375H19.4444C19.9792 8.9375 20.4167 8.51562 20.4167 8C20.4167 7.48438 19.9792 7.0625 19.4444 7.0625H17.3056V5C17.3056 4.48438 16.8681 4.0625 16.3333 4.0625C15.7986 4.0625 15.3611 4.48438 15.3611 5V7.0625H13.2222C12.6875 7.0625 12.25 7.48438 12.25 8Z" fill="#141311"/>
</svg>
