<svg width="11" height="20" viewBox="0 0 11 20" fill="none" xmlns="http://www.w3.org/2000/svg">
<path d="M0.516704 1.18333C0.362198 1.33752 0.239619 1.52067 0.155983 1.72229C0.0723472 1.92391 0.0292969 2.14005 0.0292969 2.35833C0.0292969 2.57661 0.0723472 2.79275 0.155983 2.99437C0.239619 3.19599 0.362198 3.37914 0.516704 3.53333L6.98337 10L0.516704 16.4667C0.205075 16.7783 0.0300026 17.201 0.0300026 17.6417C0.0300026 18.0824 0.205075 18.505 0.516704 18.8167C0.828333 19.1283 1.25099 19.3034 1.6917 19.3034C2.13241 19.3034 2.55507 19.1283 2.8667 18.8167L10.5167 11.1667C10.6712 11.0125 10.7938 10.8293 10.8774 10.6277C10.9611 10.4261 11.0041 10.2099 11.0041 9.99166C11.0041 9.77338 10.9611 9.55724 10.8774 9.35562C10.7938 9.154 10.6712 8.97085 10.5167 8.81666L2.8667 1.16666C2.23337 0.533329 1.1667 0.533329 0.516704 1.18333Z" fill="#141311"/>
</svg>
