<svg width="11" height="20" viewBox="0 0 11 20" fill="none" xmlns="http://www.w3.org/2000/svg">
<path d="M10.4833 1.18333C10.6378 1.33752 10.7604 1.52067 10.844 1.72229C10.9277 1.92391 10.9708 2.14005 10.9708 2.35833C10.9708 2.57661 10.9277 2.79275 10.844 2.99437C10.7604 3.19599 10.6378 3.37914 10.4833 3.53333L4.01663 10L10.4833 16.4667C10.795 16.7783 10.97 17.201 10.97 17.6417C10.97 18.0824 10.795 18.505 10.4833 18.8167C10.1717 19.1283 9.74901 19.3034 9.3083 19.3034C8.86759 19.3034 8.44493 19.1283 8.1333 18.8167L0.483297 11.1667C0.328791 11.0125 0.206211 10.8293 0.122575 10.6277C0.0389396 10.4261 -0.00411034 10.2099 -0.00411034 9.99166C-0.00411034 9.77338 0.0389396 9.55724 0.122575 9.35562C0.206211 9.154 0.328791 8.97085 0.483297 8.81666L8.1333 1.16666C8.76663 0.533329 9.8333 0.533329 10.4833 1.18333Z" fill="#141311"/>
</svg>
