<svg width="64" height="64" viewBox="0 0 64 64" fill="none" xmlns="http://www.w3.org/2000/svg">
<path d="M57.2534 29.8267L54.5067 26.0133C53.892 25.1499 53.0802 24.4455 52.1388 23.9585C51.1973 23.4716 50.1533 23.2161 49.0934 23.2133H37.4134V17.5067C37.4134 15.7386 36.711 14.0429 35.4608 12.7926C34.2105 11.5424 32.5149 10.84 30.7467 10.84H12.1601C10.3935 10.8449 8.70065 11.5489 7.45147 12.7981C6.2023 14.0472 5.49833 15.7401 5.49341 17.5067V44.0133C5.49341 45.0742 5.91484 46.0916 6.66498 46.8418C7.41513 47.5919 8.43254 48.0133 9.49341 48.0133H12.7467C12.9481 49.4401 13.658 50.7461 14.7457 51.6911C15.8334 52.6361 17.2258 53.1565 18.6667 53.1565C20.1076 53.1565 21.5001 52.6361 22.5878 51.6911C23.6755 50.7461 24.3854 49.4401 24.5867 48.0133H39.4134C39.6148 49.4401 40.3246 50.7461 41.4124 51.6911C42.5001 52.6361 43.8925 53.1565 45.3334 53.1565C46.7743 53.1565 48.1667 52.6361 49.2545 51.6911C50.3422 50.7461 51.052 49.4401 51.2534 48.0133H54.5067C55.5676 48.0133 56.585 47.5919 57.3352 46.8418C58.0853 46.0916 58.5067 45.0742 58.5067 44.0133V33.6933C58.5017 32.3054 58.0635 30.9537 57.2534 29.8267ZM18.6667 50.4933C18.0075 50.4933 17.363 50.2978 16.8148 49.9316C16.2667 49.5653 15.8394 49.0447 15.5871 48.4356C15.3349 47.8265 15.2688 47.1563 15.3975 46.5097C15.5261 45.8631 15.8435 45.2691 16.3097 44.803C16.7759 44.3368 17.3698 44.0193 18.0164 43.8907C18.663 43.7621 19.3333 43.8281 19.9424 44.0804C20.5514 44.3327 21.072 44.7599 21.4383 45.3081C21.8046 45.8563 22.0001 46.5007 22.0001 47.16C22.0001 48.044 21.6489 48.8919 21.0238 49.517C20.3986 50.1421 19.5508 50.4933 18.6667 50.4933ZM34.7467 45.3467H24.4001C24.0118 44.131 23.2472 43.0702 22.2166 42.3175C21.186 41.5648 19.9429 41.1592 18.6667 41.1592C17.3906 41.1592 16.1474 41.5648 15.1169 42.3175C14.0863 43.0702 13.3217 44.131 12.9334 45.3467H9.49341C9.13979 45.3467 8.80065 45.2062 8.5506 44.9561C8.30055 44.7061 8.16007 44.3669 8.16007 44.0133V17.5067C8.16007 16.4458 8.5815 15.4284 9.33165 14.6782C10.0818 13.9281 11.0992 13.5067 12.1601 13.5067H30.7467C31.8076 13.5067 32.825 13.9281 33.5752 14.6782C34.3253 15.4284 34.7467 16.4458 34.7467 17.5067V45.3467ZM45.3334 50.4933C44.6741 50.4933 44.0297 50.2978 43.4815 49.9316C42.9333 49.5653 42.5061 49.0447 42.2538 48.4356C42.0015 47.8265 41.9355 47.1563 42.0641 46.5097C42.1927 45.8631 42.5102 45.2691 42.9764 44.803C43.4426 44.3368 44.0365 44.0193 44.6831 43.8907C45.3297 43.7621 45.9999 43.8281 46.609 44.0804C47.2181 44.3327 47.7387 44.7599 48.105 45.3081C48.4712 45.8563 48.6667 46.5007 48.6667 47.16C48.6667 48.044 48.3156 48.8919 47.6904 49.517C47.0653 50.1421 46.2175 50.4933 45.3334 50.4933ZM55.8401 44.0133C55.8401 44.3669 55.6996 44.7061 55.4496 44.9561C55.1995 45.2062 54.8604 45.3467 54.5067 45.3467H51.0667C50.6785 44.131 49.9138 43.0702 48.8833 42.3175C47.8527 41.5648 46.6096 41.1592 45.3334 41.1592C44.0572 41.1592 42.8141 41.5648 41.7835 42.3175C40.753 43.0702 39.9884 44.131 39.6001 45.3467H37.4134V25.88H49.0934C49.7295 25.8851 50.3554 26.0399 50.9206 26.3317C51.4858 26.6236 51.9743 27.0443 52.3467 27.56L55.0934 31.3733C55.5729 32.0525 55.8334 32.862 55.8401 33.6933V44.0133Z" fill="#141311"/>
<path d="M48.0773 32.5467H42.744C42.3904 32.5467 42.0512 32.4062 41.8012 32.1561C41.5511 31.9061 41.4106 31.567 41.4106 31.2133C41.4106 30.8597 41.5511 30.5206 41.8012 30.2705C42.0512 30.0205 42.3904 29.88 42.744 29.88H48.0773C48.4309 29.88 48.7701 30.0205 49.0201 30.2705C49.2702 30.5206 49.4106 30.8597 49.4106 31.2133C49.4106 31.567 49.2702 31.9061 49.0201 32.1561C48.7701 32.4062 48.4309 32.5467 48.0773 32.5467Z" fill="#141311"/>
</svg>
