<svg width="32" height="29" viewBox="0 0 32 29" fill="none" xmlns="http://www.w3.org/2000/svg">
<path d="M16.0003 28.878L14.1607 27.2243C11.398 24.7179 9.11324 22.5641 7.30658 20.763C5.49991 18.9617 4.06824 17.3585 3.01158 15.9535C1.95491 14.5487 1.21671 13.2672 0.796992 12.1089C0.376992 10.9508 0.166992 9.77568 0.166992 8.58346C0.166992 6.21818 0.964492 4.2379 2.55949 2.64262C4.15477 1.04762 6.13505 0.250122 8.50033 0.250122C9.95533 0.250122 11.3303 0.5904 12.6253 1.27096C13.9203 1.95151 15.0453 2.92748 16.0003 4.19887C16.9553 2.92748 18.0803 1.95151 19.3753 1.27096C20.6703 0.5904 22.0453 0.250122 23.5003 0.250122C25.8656 0.250122 27.8459 1.04762 29.4412 2.64262C31.0362 4.2379 31.8337 6.21818 31.8337 8.58346C31.8337 9.77568 31.6237 10.9508 31.2037 12.1089C30.7839 13.2672 30.0457 14.5487 28.9891 15.9535C27.9324 17.3585 26.5034 18.9617 24.702 20.763C22.9009 22.5641 20.6135 24.7179 17.8399 27.2243L16.0003 28.878ZM16.0003 25.5001C18.667 23.1007 20.8614 21.044 22.5837 19.3301C24.3059 17.6165 25.667 16.1278 26.667 14.8639C27.667 13.6 28.3614 12.4776 28.7503 11.4968C29.1392 10.5162 29.3337 9.54512 29.3337 8.58346C29.3337 6.91679 28.7781 5.5279 27.667 4.41679C26.5559 3.30568 25.167 2.75012 23.5003 2.75012C22.1842 2.75012 20.9678 3.12346 19.8512 3.87012C18.7348 4.61707 17.8507 5.6561 17.1991 6.98721H14.8016C14.1391 5.64526 13.2523 4.60359 12.1412 3.86221C11.03 3.12082 9.81644 2.75012 8.50033 2.75012C6.84421 2.75012 5.45796 3.30568 4.34158 4.41679C3.22519 5.5279 2.66699 6.91679 2.66699 8.58346C2.66699 9.54512 2.86144 10.5162 3.25033 11.4968C3.63921 12.4776 4.33366 13.6 5.33366 14.8639C6.33366 16.1278 7.69477 17.6139 9.41699 19.3222C11.1392 21.0305 13.3337 23.0898 16.0003 25.5001Z" fill="#141311"/>
</svg>
