<svg width="14" height="14" viewBox="0 0 14 14" fill="none" xmlns="http://www.w3.org/2000/svg">
<path d="M7 6.74355C6.19792 6.74355 5.51132 6.45799 4.94021 5.88688C4.36896 5.31563 4.08333 4.62897 4.08333 3.82688C4.08333 3.0248 4.36896 2.3382 4.94021 1.76709C5.51132 1.19584 6.19792 0.910217 7 0.910217C7.80208 0.910217 8.48868 1.19584 9.05979 1.76709C9.63104 2.3382 9.91667 3.0248 9.91667 3.82688C9.91667 4.62897 9.63104 5.31563 9.05979 5.88688C8.48868 6.45799 7.80208 6.74355 7 6.74355ZM0.75 13.0898V11.2371C0.75 10.829 0.860833 10.4511 1.0825 10.1033C1.30417 9.75556 1.60042 9.4882 1.97125 9.30126C2.79486 8.89751 3.62576 8.59466 4.46396 8.39272C5.30215 8.19077 6.1475 8.0898 7 8.0898C7.8525 8.0898 8.69785 8.19077 9.53604 8.39272C10.3742 8.59466 11.2051 8.89751 12.0287 9.30126C12.3996 9.4882 12.6958 9.75556 12.9175 10.1033C13.1392 10.4511 13.25 10.829 13.25 11.2371V13.0898H0.75ZM2 11.8398H12V11.2371C12 11.0683 11.9511 10.9121 11.8533 10.7683C11.7556 10.6247 11.6228 10.5075 11.4552 10.4167C10.7372 10.0631 10.0051 9.79515 9.25896 9.61293C8.51271 9.43084 7.75972 9.3398 7 9.3398C6.24028 9.3398 5.48729 9.43084 4.74104 9.61293C3.99493 9.79515 3.26285 10.0631 2.54479 10.4167C2.37715 10.5075 2.24444 10.6247 2.14667 10.7683C2.04889 10.9121 2 11.0683 2 11.2371V11.8398ZM7 5.49355C7.45833 5.49355 7.85069 5.33036 8.17708 5.00397C8.50347 4.67758 8.66667 4.28522 8.66667 3.82688C8.66667 3.36855 8.50347 2.97619 8.17708 2.6498C7.85069 2.32341 7.45833 2.16022 7 2.16022C6.54167 2.16022 6.14931 2.32341 5.82292 2.6498C5.49653 2.97619 5.33333 3.36855 5.33333 3.82688C5.33333 4.28522 5.49653 4.67758 5.82292 5.00397C6.14931 5.33036 6.54167 5.49355 7 5.49355Z" fill="#141311"/>
</svg>
