<svg width="12" height="12" viewBox="0 0 12 12" fill="none" xmlns="http://www.w3.org/2000/svg">
<path fill-rule="evenodd" clip-rule="evenodd" d="M7.91287 7.19937L10.6029 9.88937C10.6974 9.98399 10.7505 10.1123 10.7505 10.246C10.7504 10.3798 10.6972 10.5081 10.6026 10.6026C10.508 10.6972 10.3797 10.7503 10.2459 10.7502C10.1122 10.7502 9.98392 10.697 9.88937 10.6024L7.19937 7.91237C6.39523 8.53521 5.38401 8.82831 4.37144 8.73205C3.35886 8.63578 2.42099 8.15739 1.74861 7.39418C1.07624 6.63097 0.719867 5.64028 0.751998 4.62365C0.784129 3.60701 1.20235 2.6408 1.92157 1.92157C2.6408 1.20235 3.60701 0.784129 4.62365 0.751998C5.64028 0.719867 6.63097 1.07624 7.39418 1.74861C8.15739 2.42099 8.63578 3.35886 8.73205 4.37144C8.82831 5.38401 8.53521 6.39523 7.91237 7.19937H7.91287ZM4.75037 7.74987C5.54602 7.74987 6.30908 7.4338 6.87169 6.87119C7.4343 6.30858 7.75037 5.54552 7.75037 4.74987C7.75037 3.95422 7.4343 3.19116 6.87169 2.62855C6.30908 2.06594 5.54602 1.74987 4.75037 1.74987C3.95472 1.74987 3.19166 2.06594 2.62905 2.62855C2.06644 3.19116 1.75037 3.95422 1.75037 4.74987C1.75037 5.54552 2.06644 6.30858 2.62905 6.87119C3.19166 7.4338 3.95472 7.74987 4.75037 7.74987Z" fill="#9D9E9D"/>
</svg>
