<svg width="20" height="20" viewBox="0 0 20 20" fill="none" xmlns="http://www.w3.org/2000/svg">
<mask id="mask0_55_32" style="mask-type:alpha" maskUnits="userSpaceOnUse" x="0" y="0" width="20" height="20">
<rect width="20" height="20" fill="#D9D9D9"/>
</mask>
<g mask="url(#mask0_55_32)">
<path d="M4.71146 18.0898C4.3066 18.0898 3.96236 17.9479 3.67875 17.6642C3.39514 17.3806 3.25333 17.0363 3.25333 16.6315C3.25333 16.2265 3.39514 15.8822 3.67875 15.5985C3.96236 15.3149 4.3066 15.1731 4.71146 15.1731C5.11646 15.1731 5.46076 15.3149 5.74438 15.5985C6.02799 15.8822 6.16979 16.2265 6.16979 16.6315C6.16979 17.0363 6.02799 17.3806 5.74438 17.6642C5.46076 17.9479 5.11646 18.0898 4.71146 18.0898ZM12.7885 18.0898C12.3835 18.0898 12.0392 17.9479 11.7556 17.6642C11.472 17.3806 11.3302 17.0363 11.3302 16.6315C11.3302 16.2265 11.472 15.8822 11.7556 15.5985C12.0392 15.3149 12.3835 15.1731 12.7885 15.1731C13.1934 15.1731 13.5376 15.3149 13.8212 15.5985C14.1049 15.8822 14.2467 16.2265 14.2467 16.6315C14.2467 17.0363 14.1049 17.3806 13.8212 17.6642C13.5376 17.9479 13.1934 18.0898 12.7885 18.0898ZM3.76271 4.91667L5.875 9.33979H11.556C11.6041 9.33979 11.6469 9.32778 11.6844 9.30375C11.7217 9.27972 11.7538 9.24632 11.7804 9.20354L14.016 5.14104C14.0481 5.08229 14.0508 5.03021 14.024 4.98479C13.9973 4.93938 13.9519 4.91667 13.8877 4.91667H3.76271ZM3.16354 3.66667H14.734C15.0748 3.66667 15.3325 3.81174 15.5071 4.10188C15.6818 4.39188 15.6901 4.68806 15.5321 4.99042L12.8621 9.82687C12.7254 10.0673 12.5447 10.2545 12.3198 10.3885C12.0948 10.5227 11.8483 10.5898 11.5802 10.5898H5.5L4.53521 12.3525C4.49243 12.4167 4.49111 12.4861 4.53125 12.5608C4.57125 12.6357 4.63132 12.6731 4.71146 12.6731H14.2467V13.9231H4.71146C4.1559 13.9231 3.73847 13.6835 3.45917 13.2044C3.17972 12.7252 3.16986 12.2468 3.42958 11.7692L4.61854 9.63146L1.58667 3.25H0V2H2.37188L3.16354 3.66667Z" fill="#141311"/>
</g>
</svg>
